<svg width="214.40999999999997" height="137.54999999999998" viewBox="0 0 1021 655" fill="none" xmlns="http://www.w3.org/2000/svg" class="mx-auto" preserveAspectRatio="xMidYMid meet"><g transform="translate(0.000000,655.000000) scale(0.100000,-0.100000)" fill="#9B163F" stroke="none"><path d="M7640 6334 c-1218 -117 -2225 -213 -2237 -213 -22 -1 -23 -4 -23 -100 l0 -99 63 -6 c34 -3 971 -10 2082 -16 1111 -5 2095 -13 2188 -16 l167 -6 0 336 c0 263 -3 336 -12 335 -7 -1 -1010 -97 -2228 -215z"></path><path d="M6046 5729 c-336 -49 -553 -228 -627 -517 -18 -72 -19 -120 -19 -1098 l0 -1024 30 -92 c55 -172 162 -318 306 -415 80 -54 126 -77 214 -104 68 -22 93 -24 265 -24 215 0 270 11 390 73 87 45 227 182 274 265 17 32 46 99 64 150 l32 92 3 1060 c2 935 1 1069 -13 1140 -65 328 -338 509 -758 504 -56 -1 -129 -5 -161 -10z m224 -495 c64 -54 60 17 60 -1116 0 -964 -1 -1035 -18 -1067 -37 -74 -120 -100 -189 -61 -79 44 -73 -46 -73 1125 0 925 2 1049 15 1076 37 70 145 93 205 43z"></path><path d="M9065 5725 c-99 -18 -175 -49 -242 -99 -132 -97 -227 -237 -275 -402 -31 -107 -33 -359 -4 -473 26 -100 108 -258 316 -606 385 -645 520 -906 520 -1003 0 -48 -21 -105 -50 -134 -24 -23 -37 -28 -79 -28 -44 0 -56 5 -90 35 -81 73 -118 208 -128 468 -5 148 -8 167 -23 167 -20 0 -505 -68 -539 -76 l-24 -5 6 -172 c16 -424 74 -635 217 -777 118 -118 260 -167 515 -177 312 -12 524 49 667 190 121 119 176 267 185 498 9 218 -29 371 -151 614 -92 180 -145 264 -365 575 -284 401 -341 510 -341 644 0 144 37 217 115 232 110 20 161 -101 172 -413 l6 -173 26 1 c14 0 141 13 281 27 l255 28 -1 139 c-2 242 -49 456 -131 605 -43 78 -146 182 -225 228 -152 90 -406 126 -613 87z"></path><path d="M0 4089 l0 -1600 548 4 c602 4 589 3 722 69 86 44 193 151 242 243 82 156 113 341 106 629 -9 334 -65 466 -250 590 -122 80 -245 130 -362 145 -83 10 -65 26 45 39 113 13 162 32 250 94 104 73 178 202 216 378 14 68 18 130 18 305 0 203 -2 226 -23 295 -42 134 -121 237 -243 313 -147 93 -178 97 -774 97 l-495 0 0 -1601z m763 1151 c15 -12 31 -38 37 -58 14 -50 13 -725 -1 -775 -22 -79 -116 -99 -171 -37 l-28 30 0 401 0 401 29 29 c37 36 94 40 134 9z m8 -1366 c10 -9 23 -33 29 -53 13 -48 13 -724 0 -773 -18 -65 -93 -98 -151 -68 -47 26 -49 44 -49 457 1 415 1 421 51 450 30 17 94 10 120 -13z"></path><path d="M1916 4118 c-169 -865 -310 -1585 -313 -1601 l-6 -27 374 2 374 3 32 380 c18 209 32 381 32 383 1 1 93 2 205 2 138 0 207 -4 212 -11 6 -10 73 -682 74 -736 l0 -23 370 0 371 0 -7 38 c-4 20 -143 739 -309 1597 l-301 1560 -400 3 -399 2 -309 -1572z m749 900 c6 -45 135 -1445 135 -1466 0 -9 -47 -12 -181 -12 l-181 0 6 38 c3 20 37 343 76 717 87 851 75 765 110 765 26 0 29 -4 35 -42z"></path><path d="M3730 4090 l0 -1600 325 0 325 0 0 675 0 675 28 0 c77 0 127 -34 170 -115 l27 -50 5 -590 5 -590 324 -3 324 -2 -6 552 c-5 608 -4 597 -70 721 -37 71 -129 157 -205 193 -33 16 -88 30 -143 37 -53 7 -89 16 -89 22 0 7 26 18 58 25 150 33 274 111 352 222 87 124 90 141 90 572 0 417 -4 449 -67 569 -66 124 -158 202 -306 255 l-72 27 -537 3 -538 3 0 -1601z m811 1160 c47 -26 49 -43 49 -461 l0 -391 -34 -34 c-40 -40 -75 -44 -123 -14 -52 31 -55 55 -51 473 l3 379 33 29 c34 31 85 39 123 19z"></path><path d="M7120 4090 l0 -1600 605 0 605 0 0 270 0 270 -270 0 -270 0 0 400 0 400 230 0 230 0 0 265 0 265 -227 2 -228 3 -3 403 -2 402 179 0 178 0 87 253 c47 138 86 255 86 260 0 4 -270 7 -600 7 l-600 0 0 -1600z"></path><path d="M8130 1190 l0 -690 104 0 104 0 22 55 c12 30 26 55 30 55 4 0 25 -17 46 -37 67 -62 134 -87 240 -87 82 -1 96 2 158 33 104 51 175 153 207 296 20 88 17 304 -5 384 -36 131 -107 230 -201 279 -44 23 -62 26 -150 27 -122 0 -177 -21 -245 -95 l-45 -49 3 260 4 259 -136 0 -136 0 0 -690z m505 99 c52 -14 100 -61 122 -118 14 -36 18 -76 18 -176 0 -122 -2 -133 -28 -187 -38 -78 -75 -103 -152 -103 -106 1 -156 45 -180 162 -26 123 -13 294 28 357 23 34 60 58 105 67 21 3 39 7 42 8 3 0 23 -4 45 -10z"></path><path d="M2936 1826 c-15 -14 -26 -35 -26 -48 0 -43 -35 -85 -87 -103 -70 -24 -77 -29 -87 -58 -13 -37 6 -75 41 -82 78 -17 133 -67 133 -122 0 -32 34 -63 69 -63 34 0 71 39 71 76 0 37 55 92 102 101 54 11 86 51 72 90 -7 22 -21 32 -64 46 -65 21 -96 52 -111 112 -13 50 -22 60 -61 70 -21 5 -33 1 -52 -19z"></path><path d="M4237 1788 c-18 -47 -491 -1248 -498 -1266 -9 -23 -8 -23 68 -20 l77 3 22 55 c11 30 47 121 79 203 l57 147 261 0 262 0 80 -205 80 -205 77 0 77 0 -22 58 c-12 31 -126 323 -253 647 l-231 590 -65 3 c-47 2 -67 -1 -71 -10z m217 -572 c31 -82 56 -153 56 -157 0 -5 -92 -9 -205 -9 -113 0 -205 2 -205 4 0 3 38 106 85 229 46 123 92 252 101 286 l18 62 46 -133 c26 -73 73 -200 104 -282z"></path><path d="M5060 1150 l0 -650 75 0 75 0 0 650 0 650 -75 0 -75 0 0 -650z"></path><path d="M6030 1150 l0 -650 400 0 401 0 -3 112 -3 113 -262 3 -263 2 0 535 0 535 -135 0 -135 0 0 -650z"></path><path d="M2477 1552 c-10 -10 -17 -26 -17 -34 0 -9 -9 -45 -20 -80 -35 -114 -124 -193 -250 -222 -75 -18 -105 -45 -95 -85 8 -35 28 -48 94 -62 142 -29 243 -134 266 -278 8 -49 35 -81 68 -81 37 1 58 26 73 89 28 121 81 193 176 241 34 16 71 30 83 30 68 0 114 46 95 94 -11 31 -19 35 -91 52 -82 19 -128 44 -178 99 -48 52 -76 108 -86 175 -4 25 -14 53 -23 63 -20 23 -74 22 -95 -1z m118 -477 l-70 -70 -70 69 -70 70 70 70 70 71 70 -70 70 -70 -70 -70z"></path><path d="M7260 1495 c-63 -14 -200 -62 -200 -71 0 -2 20 -45 45 -94 l45 -89 57 24 c80 32 171 48 243 43 52 -4 66 -9 92 -36 27 -26 32 -40 36 -90 l4 -59 -62 -6 c-35 -4 -91 -7 -126 -7 -151 0 -296 -50 -362 -125 -48 -54 -62 -100 -62 -198 0 -137 54 -228 165 -279 42 -18 67 -22 150 -22 126 1 192 24 266 94 29 27 55 47 59 45 4 -3 18 -32 30 -65 l22 -60 95 0 94 0 -3 388 -3 387 -28 57 c-42 86 -122 143 -235 167 -71 15 -242 13 -322 -4z m319 -613 c-3 -65 -9 -86 -31 -119 -67 -101 -254 -112 -294 -17 -27 63 1 144 59 176 35 19 127 36 201 37 l68 1 -3 -78z"></path><path d="M9458 1494 c-166 -40 -252 -150 -234 -301 14 -121 76 -184 263 -268 151 -68 200 -98 215 -130 14 -32 3 -71 -27 -91 -59 -39 -235 -24 -382 32 -36 13 -67 24 -69 24 -2 0 -4 -49 -4 -109 l0 -109 43 -16 c157 -58 409 -58 540 1 69 31 138 102 155 161 17 56 15 175 -4 220 -32 78 -97 128 -259 197 -143 61 -167 74 -187 99 -24 29 -22 59 3 82 18 16 36 19 113 18 76 -1 104 -6 175 -32 47 -18 85 -31 86 -29 15 25 76 189 72 193 -12 12 -147 54 -207 63 -88 15 -223 12 -292 -5z"></path><path d="M2935 915 c-14 -13 -25 -31 -25 -41 0 -50 -60 -114 -108 -114 -32 0 -72 -38 -72 -69 0 -31 36 -71 64 -71 46 0 103 -51 112 -99 14 -77 82 -107 123 -55 12 15 21 36 21 48 0 24 25 66 49 81 9 6 36 17 61 25 29 10 50 25 60 43 23 42 0 75 -70 98 -63 20 -86 44 -101 106 -19 71 -70 93 -114 48z"></path><path d="M2970 1600 c0 -5 5 -10 11 -10 5 0 7 5 4 10 -3 6 -8 10 -11 10 -2 0 -4 -4 -4 -10z"></path><path d="M2970 690 c0 -5 5 -10 11 -10 5 0 7 5 4 10 -3 6 -8 10 -11 10 -2 0 -4 -4 -4 -10z"></path></g></svg>